<?xml version="1.0" encoding="UTF-8"?>
<svg id="Ebene_1" data-name="Ebene 1" xmlns="http://www.w3.org/2000/svg" viewBox="0 0 231.43 157.76">
  <defs>
    <style>
      .cls-1 {
        fill: #2ea3f0;
      }

      .cls-2 {
        fill: #004aad;
      }
    </style>
  </defs>
  <path class="cls-2" d="M172.62,24.84c-2.3-10.47-9.94-16.46-11.99-18.03-1.87-1.42-6.17-4.38-12.45-5.89-5.53-1.32-10.02-.9-11.77-.67-6.43,.81-10.92,3.37-12.44,4.3-1.68,1.02-6.04,3.89-9.66,9.28-1.65,2.45-2.75,4.75-3.39,6.44V61.44c3.3,.02,6.85,.01,9.07-.04,5.02-.13,4.71,3.64,4.71,3.64,0,0,.05,18.86,.05,22.67,0,3.33-3.24,3.57-3.24,3.57h-10.59v18.22c10.19-7.48,18.35-14.45,24.44-19.99,11.38-10.37,17.81-17.86,21.12-21.88,4.11-5.01,8.31-10.66,11.99-18.19,3.24-6.62,4.25-10.94,4.6-14.71,.2-2.09,.5-5.58-.45-9.89ZM98.64,94.22v5.77c3.69,3.02,7.79,6.22,12.28,9.51v-18.22h-8.96c-3.28,0-3.32,2.94-3.32,2.94ZM107.52,13.83c-3.62-5.39-7.97-8.26-9.65-9.28-1.53-.93-6.02-3.49-12.45-4.3-1.75-.23-6.23-.65-11.77,.67-6.28,1.51-10.58,4.47-12.44,5.89-2.06,1.57-9.69,7.56-11.99,18.03-.95,4.31-.65,7.8-.46,9.89,.36,3.77,1.36,8.09,4.6,14.71,2.43,4.97,5.09,9.11,7.8,12.8,.99,0,2.97,0,6.75-.03,6.43-.04,6.44-4.52,6.44-4.55,0,0-.03-12.98,0-17.96,.02-4.98,3.68-4.6,3.68-4.6,0,0,8.56-.01,15.04,0,6.48,.02,5.57,5.35,5.57,5.35,0,0-.01,12.34,0,16.5,.01,4.16,4.33,4.44,4.33,4.44,0,0,3.76,.04,7.95,.05V20.27c-.64-1.69-1.75-3.99-3.4-6.44Z"/>
  <path class="cls-1" d="M160.5,41.47c-1.85-8.42-7.98-13.23-9.64-14.49-1.49-1.14-4.95-3.52-10-4.73-4.44-1.07-8.05-.73-9.45-.55-5.17,.66-8.78,2.71-10.01,3.46-1.35,.82-4.85,3.13-7.75,7.46-1.33,1.97-2.22,3.82-2.73,5.17v23.65c3.3,.02,6.85,.01,9.07-.04,5.02-.13,4.71,3.64,4.71,3.64,0,0,.05,18.86,.05,22.67,0,3.33-3.24,3.57-3.24,3.57h-10.59v18.22c8.19-6.01,14.75-11.61,19.64-16.07,9.15-8.33,14.31-14.35,16.97-17.58,3.3-4.02,6.68-8.57,9.64-14.61,2.6-5.32,3.41-8.8,3.7-11.83,.15-1.67,.39-4.48-.37-7.94Zm-52.31-8.85c-2.91-4.33-6.41-6.64-7.76-7.46-1.23-.75-4.83-2.8-10-3.46-1.41-.18-5.01-.52-9.46,.55-5.05,1.21-8.5,3.59-10,4.73-1.65,1.26-7.79,6.07-9.64,14.49-.76,3.46-.52,6.27-.36,7.94,.28,3.03,1.09,6.51,3.7,11.83,.16,.33,.33,.66,.5,.99,.79-.01,1.7-.01,2.74-.02,6.43-.04,6.44-4.52,6.44-4.55,0,0-.03-12.98,0-17.96,.02-4.98,3.68-4.6,3.68-4.6,0,0,8.56-.01,15.04,0,6.48,.02,5.57,5.35,5.57,5.35,0,0-.01,12.34,0,16.5,.01,4.16,4.33,4.44,4.33,4.44,0,0,3.76,.04,7.95,.05v-23.65c-.52-1.35-1.4-3.2-2.73-5.17Zm-6.23,58.66c-3.28,0-3.32,2.94-3.32,2.94v5.65c3.57,2.99,7.67,6.25,12.28,9.63v-18.22h-8.96Z"/>
  <g>
    <path class="cls-2" d="M7.28,133.25v9.14H3.11v-25.21h7.65c2.89,0,5.14,.67,6.73,2.02s2.39,3.25,2.39,5.7-.83,4.45-2.5,6.01-3.91,2.34-6.75,2.34h-3.36Zm0-12.62v9.21h2.71c1.79,0,3.16-.42,4.1-1.25s1.41-2,1.41-3.52c0-2.96-1.72-4.45-5.17-4.45h-3.04Z"/>
    <path class="cls-2" d="M33.87,119.07c-.55-.32-1.18-.47-1.88-.47-1.98,0-2.97,1.12-2.97,3.36v2.44h4.18v3.2h-4.17v14.8h-4.08v-14.8h-3.08v-3.2h3.08v-2.92c0-1.9,.62-3.4,1.86-4.49s2.79-1.64,4.66-1.64c1.01,0,1.8,.11,2.39,.33v3.39Z"/>
    <path class="cls-2" d="M40.2,142.39h-4.1v-26.65h4.1v26.65Z"/>
    <path class="cls-2" d="M60.75,134.5h-12.27c.05,1.66,.56,2.95,1.54,3.85s2.32,1.35,4.03,1.35c1.92,0,3.69-.57,5.29-1.72v3.29c-1.64,1.03-3.81,1.55-6.5,1.55s-4.73-.82-6.23-2.45-2.26-3.93-2.26-6.9c0-2.8,.83-5.08,2.49-6.85s3.72-2.65,6.18-2.65,4.37,.79,5.71,2.37,2.02,3.78,2.02,6.59v1.56Zm-3.94-2.88c-.01-1.46-.36-2.6-1.04-3.42s-1.62-1.22-2.81-1.22-2.17,.43-2.98,1.28-1.32,1.97-1.5,3.36h8.33Z"/>
    <path class="cls-2" d="M81.02,140.95c0,6.61-3.32,9.91-9.97,9.91-2.34,0-4.39-.39-6.13-1.18v-3.73c1.97,1.12,3.84,1.69,5.61,1.69,4.28,0,6.42-2.1,6.42-6.31v-1.97h-.07c-1.35,2.3-3.38,3.45-6.08,3.45-2.19,0-3.96-.8-5.3-2.4s-2.01-3.75-2.01-6.44c0-3.06,.72-5.49,2.16-7.29s3.42-2.71,5.94-2.71c2.38,0,4.14,.97,5.29,2.92h.07v-2.5h4.08v16.56Zm-4.04-6.8v-2.34c0-1.27-.42-2.35-1.26-3.24s-1.88-1.34-3.14-1.34c-1.55,0-2.76,.57-3.63,1.71s-1.31,2.74-1.31,4.79c0,1.77,.42,3.18,1.26,4.25s1.95,1.59,3.33,1.59,2.55-.51,3.43-1.52,1.32-2.31,1.32-3.89Z"/>
    <path class="cls-2" d="M101.57,134.5h-12.27c.05,1.66,.56,2.95,1.54,3.85s2.32,1.35,4.03,1.35c1.92,0,3.69-.57,5.29-1.72v3.29c-1.64,1.03-3.81,1.55-6.5,1.55s-4.73-.82-6.23-2.45-2.26-3.93-2.26-6.9c0-2.8,.83-5.08,2.49-6.85s3.72-2.65,6.18-2.65,4.37,.79,5.71,2.37,2.02,3.78,2.02,6.59v1.56Zm-3.94-2.88c-.01-1.46-.36-2.6-1.04-3.42s-1.62-1.22-2.81-1.22-2.17,.43-2.98,1.28-1.32,1.97-1.5,3.36h8.33Z"/>
    <path class="cls-2" d="M125.53,119.07c-.55-.32-1.18-.47-1.88-.47-1.98,0-2.97,1.12-2.97,3.36v2.44h4.18v3.2h-4.17v14.8h-4.08v-14.8h-3.08v-3.2h3.08v-2.92c0-1.9,.62-3.4,1.86-4.49s2.79-1.64,4.66-1.64c1.01,0,1.8,.11,2.39,.33v3.39Z"/>
    <path class="cls-2" d="M143.46,142.39h-4.08v-2.85h-.07c-1.18,2.18-3.02,3.27-5.52,3.27-4.25,0-6.38-2.55-6.38-7.66v-10.76h4.08v10.34c0,3.23,1.25,4.85,3.74,4.85,1.21,0,2.2-.45,2.98-1.34s1.17-2.06,1.17-3.5v-10.35h4.08v18Zm-11.57-21.15c-.61,0-1.13-.2-1.56-.61s-.65-.89-.65-1.45,.21-1.05,.62-1.44,.92-.58,1.52-.58,1.12,.2,1.56,.59,.66,.87,.66,1.43-.21,1.06-.63,1.46-.93,.6-1.51,.6Zm7.31,0c-.59,0-1.09-.19-1.52-.58s-.64-.88-.64-1.48,.21-1.05,.62-1.44,.91-.58,1.49-.58c.62,0,1.15,.2,1.57,.59s.64,.87,.64,1.43-.21,1.06-.62,1.46-.93,.6-1.55,.6Z"/>
    <path class="cls-2" d="M159.21,128.28c-.49-.39-1.2-.58-2.13-.58-1.21,0-2.21,.54-3.02,1.63s-1.21,2.57-1.21,4.45v8.61h-4.08v-18h4.08v3.71h.07c.4-1.27,1.01-2.25,1.84-2.96s1.75-1.06,2.77-1.06c.74,0,1.3,.11,1.69,.33v3.87Z"/>
    <path class="cls-2" d="M193.15,142.39h-4.59l-2.27-6.42h-9.91l-2.18,6.42h-4.57l9.44-25.21h4.71l9.37,25.21Zm-7.96-9.83l-3.5-10.05c-.11-.33-.22-.86-.33-1.58h-.07c-.11,.67-.22,1.2-.35,1.58l-3.46,10.05h7.72Z"/>
    <path class="cls-2" d="M200.25,142.39h-4.1v-26.65h4.1v26.65Z"/>
    <path class="cls-2" d="M209.65,142.39h-4.1v-26.65h4.1v26.65Z"/>
    <path class="cls-2" d="M230.2,134.5h-12.27c.05,1.66,.56,2.95,1.54,3.85s2.32,1.35,4.03,1.35c1.92,0,3.69-.57,5.29-1.72v3.29c-1.64,1.03-3.81,1.55-6.5,1.55s-4.73-.82-6.23-2.45-2.26-3.93-2.26-6.9c0-2.8,.83-5.08,2.49-6.85s3.72-2.65,6.18-2.65,4.37,.79,5.71,2.37,2.02,3.78,2.02,6.59v1.56Zm-3.94-2.88c-.01-1.46-.36-2.6-1.04-3.42s-1.62-1.22-2.81-1.22-2.17,.43-2.98,1.28-1.32,1.97-1.5,3.36h8.33Z"/>
  </g>
</svg>